<?xml version="1.0" encoding="utf-8"?>
<svg height="239.858px" viewBox="116.6878 125.503 266.6244 239.8579"
    width="266.624px" xmlns="http://www.w3.org/2000/svg">
    <g style="fill: rgb(255, 255, 255);"
        transform="matrix(1.5443060398101804, 0, 0, 1.4604359865188596, 116.68778228759766, 294.0916137695312)">
        <g>
            <g transform="translate(0, 0)">
                <path
                    style="fill: rgb(255, 255, 255);"
                    d="M0 13.20L9.60 48.20L14.30 48.20L23.90 13.20L19.80 13.20L11.95 42.30L4.05 13.20L0 13.20ZM27.50 41.25L27.50 38.75L41.85 38.00L41.85 31.10Q41.85 28.30 40.75 26.42Q39.65 24.55 37.68 23.62Q35.70 22.70 33.05 22.70Q30.40 22.70 28.30 23.65Q26.20 24.60 25.00 26.50Q23.80 28.40 23.80 31.25L23.80 41.50Q23.80 43.50 24.43 44.90Q25.05 46.30 26.18 47.17Q27.30 48.05 28.88 48.42Q30.45 48.80 32.30 48.80Q34.35 48.80 36.58 48.17Q38.80 47.55 40.60 46.45L39.20 43.40Q37.45 44.30 35.68 44.90Q33.90 45.50 32.20 45.50Q31.20 45.50 30.33 45.25Q29.45 45.00 28.83 44.47Q28.20 43.95 27.85 43.15Q27.50 42.35 27.50 41.25M38.10 31.35L38.10 34.75L27.50 35.25L27.50 31.70Q27.50 29.90 28.13 28.65Q28.75 27.40 29.98 26.72Q31.20 26.05 33 26.00Q34.60 26.00 35.75 26.70Q36.90 27.40 37.50 28.60Q38.10 29.80 38.10 31.35ZM60.80 27.20L61.70 24.30Q60.15 23.60 58.45 23.15Q56.75 22.70 55.05 22.65Q51.95 22.65 49.88 23.85Q47.80 25.05 46.75 27.22Q45.70 29.40 45.70 32.25L45.70 39.50Q45.70 42.70 46.88 44.72Q48.05 46.75 50.20 47.72Q52.35 48.70 55.20 48.75Q56.90 48.80 58.58 48.57Q60.25 48.35 61.80 47.95L61.10 44.80Q61.15 44.80 60.68 44.87Q60.20 44.95 59.40 45.10Q58.60 45.25 57.63 45.35Q56.65 45.45 55.65 45.45Q54.05 45.40 52.88 45.02Q51.70 44.65 50.90 43.90Q50.10 43.15 49.73 41.95Q49.35 40.75 49.35 39.10L49.40 32.30Q49.40 30.35 50.08 28.92Q50.75 27.50 52.10 26.72Q53.45 25.95 55.50 25.95Q56.85 26.00 58.25 26.32Q59.65 26.65 60.80 27.20ZM65.65 48.20L69.40 48.20L69.40 23.15L65.65 23.15L65.65 48.20M67.55 12.70Q66.70 12.70 66.05 13.30Q65.40 13.90 65.40 14.80Q65.40 15.65 66.05 16.27Q66.70 16.90 67.55 16.90Q68.45 16.90 69.08 16.27Q69.70 15.65 69.70 14.80Q69.70 13.90 69.08 13.30Q68.45 12.70 67.55 12.70ZM88.30 31.10L88.30 48.20L91.95 48.20L91.95 30.95Q91.95 29.20 91.55 27.90Q91.15 26.60 90.40 25.62Q89.65 24.65 88.60 24.00Q87.55 23.35 86.25 23.02Q84.95 22.70 83.45 22.70Q82.30 22.70 81.15 22.97Q80.00 23.25 79.00 23.70Q78.00 24.15 77.20 24.65L77.20 23.15L73.45 23.15L73.45 48.20L77.20 48.20L77.20 27.60Q78.15 27.05 79.05 26.70Q79.95 26.35 80.88 26.20Q81.80 26.05 82.75 26.05Q83.85 26.05 84.83 26.32Q85.80 26.60 86.60 27.20Q87.40 27.80 87.85 28.75Q88.30 29.70 88.30 31.10ZM121.10 48.20L110.65 13.20L106.30 13.20L95.95 48.20L100.05 48.20L103.35 36.95L113.60 36.95L116.95 48.20L121.10 48.20M104.30 33.20L108.40 18.45L112.65 33.20L104.30 33.20ZM136.55 13.20L125.05 13.20L125.05 48.20L128.80 48.20L128.80 36.75L136.55 36.75Q138.90 36.75 140.80 36.17Q142.70 35.60 144.05 34.25Q145.40 32.90 146.13 30.60Q146.85 28.30 146.85 24.85Q146.85 21.50 146.10 19.22Q145.35 16.95 143.95 15.65Q142.55 14.35 140.68 13.77Q138.80 13.20 136.55 13.20M128.80 33.20L128.80 16.80L136.05 16.80Q137.65 16.80 138.95 17.12Q140.25 17.45 141.18 18.27Q142.10 19.10 142.57 20.70Q143.05 22.30 143.05 24.85Q143.05 27.60 142.57 29.27Q142.10 30.95 141.15 31.77Q140.20 32.60 138.93 32.90Q137.65 33.20 136.05 33.20L128.80 33.20ZM162.35 13.20L150.85 13.20L150.85 48.20L154.60 48.20L154.60 36.75L162.35 36.75Q164.70 36.75 166.60 36.17Q168.50 35.60 169.85 34.25Q171.20 32.90 171.92 30.60Q172.65 28.30 172.65 24.85Q172.65 21.50 171.90 19.22Q171.15 16.95 169.75 15.65Q168.35 14.35 166.47 13.77Q164.60 13.20 162.35 13.20M154.60 33.20L154.60 16.80L161.85 16.80Q163.45 16.80 164.75 17.12Q166.05 17.45 166.97 18.27Q167.90 19.10 168.38 20.70Q168.85 22.30 168.85 24.85Q168.85 27.60 168.38 29.27Q167.90 30.95 166.95 31.77Q166.00 32.60 164.72 32.90Q163.45 33.20 161.85 33.20L154.60 33.20Z" />
            </g>
        </g>
    </g>
    <path style="fill: rgb(255, 255, 255);"
        d="M 174.145 304.091 L 174.145 273.545 C 174.145 269.218 175.513 265.59 178.25 262.664 C 180.986 259.736 184.276 258.272 188.119 258.272 L 211.001 258.272 C 213.33 258.272 215.542 258.909 217.638 260.182 C 219.734 261.455 221.422 263.173 222.704 265.336 C 226.08 270.3 230.243 274.182 235.192 276.982 C 240.141 279.782 245.411 281.182 251 281.182 C 256.705 281.182 262.033 279.782 266.982 276.982 C 271.931 274.182 276.035 270.3 279.297 265.336 C 280.81 263.173 282.586 261.455 284.624 260.182 C 286.661 258.909 288.786 258.272 291 258.272 L 313.881 258.272 C 317.84 258.272 321.159 259.736 323.837 262.664 C 326.516 265.59 327.855 269.218 327.855 273.545 L 327.855 304.091 L 278.947 304.091 L 278.947 286.718 C 274.871 289.9 270.475 292.318 265.76 293.973 C 261.043 295.627 256.124 296.455 251 296.455 C 245.992 296.455 241.102 295.596 236.327 293.878 C 231.553 292.159 227.129 289.709 223.053 286.527 L 223.053 304.091 L 174.145 304.091 Z M 251 273.545 C 246.575 273.545 242.383 272.432 238.423 270.205 C 234.465 267.977 231.145 264.891 228.467 260.946 C 226.488 257.763 224.014 255.25 221.044 253.404 C 218.074 251.559 214.843 250.636 211.35 250.636 C 213.911 245.927 219.326 242.204 227.594 239.468 C 235.862 236.731 243.664 235.364 251 235.364 C 258.336 235.364 266.138 236.731 274.406 239.468 C 282.674 242.204 288.088 245.927 290.65 250.636 C 287.273 250.636 284.071 251.559 281.043 253.404 C 278.015 255.25 275.512 257.763 273.532 260.946 C 270.971 265.018 267.71 268.136 263.751 270.3 C 259.791 272.464 255.541 273.545 251 273.545 Z M 195.106 250.636 C 189.283 250.636 184.334 248.409 180.259 243.955 C 176.183 239.5 174.145 234.09 174.145 227.727 C 174.145 221.236 176.183 215.795 180.259 211.404 C 184.334 207.013 189.283 204.818 195.106 204.818 C 201.044 204.818 206.022 207.013 210.04 211.404 C 214.057 215.795 216.066 221.236 216.066 227.727 C 216.066 234.09 214.057 239.5 210.04 243.955 C 206.022 248.409 201.044 250.636 195.106 250.636 Z M 306.894 250.636 C 301.072 250.636 296.123 248.409 292.047 243.955 C 287.972 239.5 285.934 234.09 285.934 227.727 C 285.934 221.236 287.972 215.795 292.047 211.404 C 296.123 207.013 301.072 204.818 306.894 204.818 C 312.833 204.818 317.811 207.013 321.828 211.404 C 325.846 215.795 327.855 221.236 327.855 227.727 C 327.855 234.09 325.846 239.5 321.828 243.955 C 317.811 248.409 312.833 250.636 306.894 250.636 Z M 251 227.727 C 245.177 227.727 240.229 225.499 236.153 221.045 C 232.077 216.59 230.039 211.182 230.039 204.818 C 230.039 198.326 232.077 192.886 236.153 188.495 C 240.229 184.104 245.177 181.909 251 181.909 C 256.939 181.909 261.917 184.104 265.934 188.495 C 269.952 192.886 271.96 198.326 271.96 204.818 C 271.96 211.182 269.952 216.59 265.934 221.045 C 261.917 225.499 256.939 227.727 251 227.727 Z"
        transform="matrix(0.9999999999999999, 0, 0, 0.9999999999999999, 0, -2.842170943040401e-14)"
        xmlns="http://www.w3.org/2000/svg" />
    <path style="fill: rgb(255, 255, 255);"
        d="M 155.837 213.355 L 144.307 199.299 L 250 125.503 L 288.434 152.297 L 288.434 134.287 L 317.259 134.287 L 317.259 172.503 L 355.693 199.299 L 344.163 213.355 L 250 147.685 L 155.837 213.355 Z M 250 248.496 Z"
        transform="matrix(0.9999999999999999, 0, 0, 0.9999999999999999, 0, -2.842170943040401e-14)"
        xmlns="http://www.w3.org/2000/svg" />
</svg>