<?xml version="1.0" encoding="utf-8"?>
<svg height="239.858px" viewBox="116.6878 132.503 266.6244 239.8579"
    width="266.624px" xmlns="http://www.w3.org/2000/svg">
    <path style=""
        d="M 173.145 311.091 L 173.145 280.545 C 173.145 276.218 174.513 272.59 177.25 269.664 C 179.986 266.736 183.276 265.272 187.119 265.272 L 210.001 265.272 C 212.33 265.272 214.542 265.909 216.638 267.182 C 218.734 268.455 220.422 270.173 221.704 272.336 C 225.08 277.3 229.243 281.182 234.192 283.982 C 239.141 286.782 244.411 288.182 250 288.182 C 255.705 288.182 261.033 286.782 265.982 283.982 C 270.931 281.182 275.035 277.3 278.297 272.336 C 279.81 270.173 281.586 268.455 283.624 267.182 C 285.661 265.909 287.786 265.272 290 265.272 L 312.881 265.272 C 316.84 265.272 320.159 266.736 322.837 269.664 C 325.516 272.59 326.855 276.218 326.855 280.545 L 326.855 311.091 L 277.947 311.091 L 277.947 293.718 C 273.871 296.9 269.475 299.318 264.76 300.973 C 260.043 302.627 255.124 303.455 250 303.455 C 244.992 303.455 240.102 302.596 235.327 300.878 C 230.553 299.159 226.129 296.709 222.053 293.527 L 222.053 311.091 L 173.145 311.091 Z M 250 280.545 C 245.575 280.545 241.383 279.432 237.423 277.205 C 233.465 274.977 230.145 271.891 227.467 267.946 C 225.488 264.763 223.014 262.25 220.044 260.404 C 217.074 258.559 213.843 257.636 210.35 257.636 C 212.911 252.927 218.326 249.204 226.594 246.468 C 234.862 243.731 242.664 242.364 250 242.364 C 257.336 242.364 265.138 243.731 273.406 246.468 C 281.674 249.204 287.088 252.927 289.65 257.636 C 286.273 257.636 283.071 258.559 280.043 260.404 C 277.015 262.25 274.512 264.763 272.532 267.946 C 269.971 272.018 266.71 275.136 262.751 277.3 C 258.791 279.464 254.541 280.545 250 280.545 Z M 194.106 257.636 C 188.283 257.636 183.334 255.409 179.259 250.955 C 175.183 246.5 173.145 241.09 173.145 234.727 C 173.145 228.236 175.183 222.795 179.259 218.404 C 183.334 214.013 188.283 211.818 194.106 211.818 C 200.044 211.818 205.022 214.013 209.04 218.404 C 213.057 222.795 215.066 228.236 215.066 234.727 C 215.066 241.09 213.057 246.5 209.04 250.955 C 205.022 255.409 200.044 257.636 194.106 257.636 Z M 305.894 257.636 C 300.072 257.636 295.123 255.409 291.047 250.955 C 286.972 246.5 284.934 241.09 284.934 234.727 C 284.934 228.236 286.972 222.795 291.047 218.404 C 295.123 214.013 300.072 211.818 305.894 211.818 C 311.833 211.818 316.811 214.013 320.828 218.404 C 324.846 222.795 326.855 228.236 326.855 234.727 C 326.855 241.09 324.846 246.5 320.828 250.955 C 316.811 255.409 311.833 257.636 305.894 257.636 Z M 250 234.727 C 244.177 234.727 239.229 232.499 235.153 228.045 C 231.077 223.59 229.039 218.182 229.039 211.818 C 229.039 205.326 231.077 199.886 235.153 195.495 C 239.229 191.104 244.177 188.909 250 188.909 C 255.939 188.909 260.917 191.104 264.934 195.495 C 268.952 199.886 270.96 205.326 270.96 211.818 C 270.96 218.182 268.952 223.59 264.934 228.045 C 260.917 232.499 255.939 234.727 250 234.727 Z"
        transform="matrix(0.9999999999999999, 0, 0, 0.9999999999999999, 0, 0)" xmlns="http://www.w3.org/2000/svg" />
    <path style=""
        d="M 155.837 220.355 L 144.307 206.299 L 250 132.503 L 288.434 159.297 L 288.434 141.287 L 317.259 141.287 L 317.259 179.503 L 355.693 206.299 L 344.163 220.355 L 250 154.685 L 155.837 220.355 Z M 250 255.496 Z"
        transform="matrix(0.9999999999999999, 0, 0, 0.9999999999999999, 0, 0)" xmlns="http://www.w3.org/2000/svg" />
</svg>