<?xml version="1.0" encoding="utf-8"?>
<svg height="239.858px" viewBox="116.6878 132.503 266.6244 239.8579"
    width="266.624px" xmlns="http://www.w3.org/2000/svg">
    <g style="fill: rgb(0,0,0);"
        transform="matrix(1.5443060398101804, 0, 0, 1.4604359865188596, 116.68778228759766, 301.09161376953125)">
        <g>
            <g transform="translate(0, 0)">
                <path d="M0 13.20L9.60 48.20L14.30 48.20L23.90 13.20L19.80 13.20L11.95 42.30L4.05 13.20L0 13.20ZM27.50 41.25L27.50 38.75L41.85 38.00L41.85 31.10Q41.85 28.30 40.75 26.42Q39.65 24.55 37.68 23.62Q35.70 22.70 33.05 22.70Q30.40 22.70 28.30 23.65Q26.20 24.60 25.00 26.50Q23.80 28.40 23.80 31.25L23.80 41.50Q23.80 43.50 24.43 44.90Q25.05 46.30 26.18 47.17Q27.30 48.05 28.88 48.42Q30.45 48.80 32.30 48.80Q34.35 48.80 36.58 48.17Q38.80 47.55 40.60 46.45L39.20 43.40Q37.45 44.30 35.68 44.90Q33.90 45.50 32.20 45.50Q31.20 45.50 30.33 45.25Q29.45 45.00 28.83 44.47Q28.20 43.95 27.85 43.15Q27.50 42.35 27.50 41.25M38.10 31.35L38.10 34.75L27.50 35.25L27.50 31.70Q27.50 29.90 28.13 28.65Q28.75 27.40 29.98 26.72Q31.20 26.05 33 26.00Q34.60 26.00 35.75 26.70Q36.90 27.40 37.50 28.60Q38.10 29.80 38.10 31.35ZM60.80 27.20L61.70 24.30Q60.15 23.60 58.45 23.15Q56.75 22.70 55.05 22.65Q51.95 22.65 49.88 23.85Q47.80 25.05 46.75 27.22Q45.70 29.40 45.70 32.25L45.70 39.50Q45.70 42.70 46.88 44.72Q48.05 46.75 50.20 47.72Q52.35 48.70 55.20 48.75Q56.90 48.80 58.58 48.57Q60.25 48.35 61.80 47.95L61.10 44.80Q61.15 44.80 60.68 44.87Q60.20 44.95 59.40 45.10Q58.60 45.25 57.63 45.35Q56.65 45.45 55.65 45.45Q54.05 45.40 52.88 45.02Q51.70 44.65 50.90 43.90Q50.10 43.15 49.73 41.95Q49.35 40.75 49.35 39.10L49.40 32.30Q49.40 30.35 50.08 28.92Q50.75 27.50 52.10 26.72Q53.45 25.95 55.50 25.95Q56.85 26.00 58.25 26.32Q59.65 26.65 60.80 27.20ZM65.65 48.20L69.40 48.20L69.40 23.15L65.65 23.15L65.65 48.20M67.55 12.70Q66.70 12.70 66.05 13.30Q65.40 13.90 65.40 14.80Q65.40 15.65 66.05 16.27Q66.70 16.90 67.55 16.90Q68.45 16.90 69.08 16.27Q69.70 15.65 69.70 14.80Q69.70 13.90 69.08 13.30Q68.45 12.70 67.55 12.70ZM88.30 31.10L88.30 48.20L91.95 48.20L91.95 30.95Q91.95 29.20 91.55 27.90Q91.15 26.60 90.40 25.62Q89.65 24.65 88.60 24.00Q87.55 23.35 86.25 23.02Q84.95 22.70 83.45 22.70Q82.30 22.70 81.15 22.97Q80.00 23.25 79.00 23.70Q78.00 24.15 77.20 24.65L77.20 23.15L73.45 23.15L73.45 48.20L77.20 48.20L77.20 27.60Q78.15 27.05 79.05 26.70Q79.95 26.35 80.88 26.20Q81.80 26.05 82.75 26.05Q83.85 26.05 84.83 26.32Q85.80 26.60 86.60 27.20Q87.40 27.80 87.85 28.75Q88.30 29.70 88.30 31.10ZM121.10 48.20L110.65 13.20L106.30 13.20L95.95 48.20L100.05 48.20L103.35 36.95L113.60 36.95L116.95 48.20L121.10 48.20M104.30 33.20L108.40 18.45L112.65 33.20L104.30 33.20ZM136.55 13.20L125.05 13.20L125.05 48.20L128.80 48.20L128.80 36.75L136.55 36.75Q138.90 36.75 140.80 36.17Q142.70 35.60 144.05 34.25Q145.40 32.90 146.13 30.60Q146.85 28.30 146.85 24.85Q146.85 21.50 146.10 19.22Q145.35 16.95 143.95 15.65Q142.55 14.35 140.68 13.77Q138.80 13.20 136.55 13.20M128.80 33.20L128.80 16.80L136.05 16.80Q137.65 16.80 138.95 17.12Q140.25 17.45 141.18 18.27Q142.10 19.10 142.57 20.70Q143.05 22.30 143.05 24.85Q143.05 27.60 142.57 29.27Q142.10 30.95 141.15 31.77Q140.20 32.60 138.93 32.90Q137.65 33.20 136.05 33.20L128.80 33.20ZM162.35 13.20L150.85 13.20L150.85 48.20L154.60 48.20L154.60 36.75L162.35 36.75Q164.70 36.75 166.60 36.17Q168.50 35.60 169.85 34.25Q171.20 32.90 171.92 30.60Q172.65 28.30 172.65 24.85Q172.65 21.50 171.90 19.22Q171.15 16.95 169.75 15.65Q168.35 14.35 166.47 13.77Q164.60 13.20 162.35 13.20M154.60 33.20L154.60 16.80L161.85 16.80Q163.45 16.80 164.75 17.12Q166.05 17.45 166.97 18.27Q167.90 19.10 168.38 20.70Q168.85 22.30 168.85 24.85Q168.85 27.60 168.38 29.27Q167.90 30.95 166.95 31.77Q166.00 32.60 164.72 32.90Q163.45 33.20 161.85 33.20L154.60 33.20Z"/>
            </g>
        </g>
    </g>
    <path style=""
        d="M 173.145 311.091 L 173.145 280.545 C 173.145 276.218 174.513 272.59 177.25 269.664 C 179.986 266.736 183.276 265.272 187.119 265.272 L 210.001 265.272 C 212.33 265.272 214.542 265.909 216.638 267.182 C 218.734 268.455 220.422 270.173 221.704 272.336 C 225.08 277.3 229.243 281.182 234.192 283.982 C 239.141 286.782 244.411 288.182 250 288.182 C 255.705 288.182 261.033 286.782 265.982 283.982 C 270.931 281.182 275.035 277.3 278.297 272.336 C 279.81 270.173 281.586 268.455 283.624 267.182 C 285.661 265.909 287.786 265.272 290 265.272 L 312.881 265.272 C 316.84 265.272 320.159 266.736 322.837 269.664 C 325.516 272.59 326.855 276.218 326.855 280.545 L 326.855 311.091 L 277.947 311.091 L 277.947 293.718 C 273.871 296.9 269.475 299.318 264.76 300.973 C 260.043 302.627 255.124 303.455 250 303.455 C 244.992 303.455 240.102 302.596 235.327 300.878 C 230.553 299.159 226.129 296.709 222.053 293.527 L 222.053 311.091 L 173.145 311.091 Z M 250 280.545 C 245.575 280.545 241.383 279.432 237.423 277.205 C 233.465 274.977 230.145 271.891 227.467 267.946 C 225.488 264.763 223.014 262.25 220.044 260.404 C 217.074 258.559 213.843 257.636 210.35 257.636 C 212.911 252.927 218.326 249.204 226.594 246.468 C 234.862 243.731 242.664 242.364 250 242.364 C 257.336 242.364 265.138 243.731 273.406 246.468 C 281.674 249.204 287.088 252.927 289.65 257.636 C 286.273 257.636 283.071 258.559 280.043 260.404 C 277.015 262.25 274.512 264.763 272.532 267.946 C 269.971 272.018 266.71 275.136 262.751 277.3 C 258.791 279.464 254.541 280.545 250 280.545 Z M 194.106 257.636 C 188.283 257.636 183.334 255.409 179.259 250.955 C 175.183 246.5 173.145 241.09 173.145 234.727 C 173.145 228.236 175.183 222.795 179.259 218.404 C 183.334 214.013 188.283 211.818 194.106 211.818 C 200.044 211.818 205.022 214.013 209.04 218.404 C 213.057 222.795 215.066 228.236 215.066 234.727 C 215.066 241.09 213.057 246.5 209.04 250.955 C 205.022 255.409 200.044 257.636 194.106 257.636 Z M 305.894 257.636 C 300.072 257.636 295.123 255.409 291.047 250.955 C 286.972 246.5 284.934 241.09 284.934 234.727 C 284.934 228.236 286.972 222.795 291.047 218.404 C 295.123 214.013 300.072 211.818 305.894 211.818 C 311.833 211.818 316.811 214.013 320.828 218.404 C 324.846 222.795 326.855 228.236 326.855 234.727 C 326.855 241.09 324.846 246.5 320.828 250.955 C 316.811 255.409 311.833 257.636 305.894 257.636 Z M 250 234.727 C 244.177 234.727 239.229 232.499 235.153 228.045 C 231.077 223.59 229.039 218.182 229.039 211.818 C 229.039 205.326 231.077 199.886 235.153 195.495 C 239.229 191.104 244.177 188.909 250 188.909 C 255.939 188.909 260.917 191.104 264.934 195.495 C 268.952 199.886 270.96 205.326 270.96 211.818 C 270.96 218.182 268.952 223.59 264.934 228.045 C 260.917 232.499 255.939 234.727 250 234.727 Z"
        transform="matrix(0.9999999999999999, 0, 0, 0.9999999999999999, 0, 0)" xmlns="http://www.w3.org/2000/svg" />
    <path style=""
        d="M 155.837 220.355 L 144.307 206.299 L 250 132.503 L 288.434 159.297 L 288.434 141.287 L 317.259 141.287 L 317.259 179.503 L 355.693 206.299 L 344.163 220.355 L 250 154.685 L 155.837 220.355 Z M 250 255.496 Z"
        transform="matrix(0.9999999999999999, 0, 0, 0.9999999999999999, 0, 0)" xmlns="http://www.w3.org/2000/svg" />
</svg>