<?xml version="1.0" encoding="utf-8"?>
<svg xmlns="http://www.w3.org/2000/svg" viewBox="0 0 500 500">
    <path d="M 124.431 173.006 L 246.66 93.085 L 368.889 173.006" fill="none" stroke="#FFFFFF" stroke-width="32" stroke-linecap="round" stroke-linejoin="round" style="" transform="matrix(0.9999999999999999, 0, 0, 0.9999999999999999, -1.1368683772161603e-13, 0)"/>
    <circle cx="257.594" cy="256.38" r="48" fill="#FFFFFF" style="" transform="matrix(0.8055490255355834, 0, 0, 0.7881129980087279, 37.646713256835824, 3.868900060653658)"/>
    <rect x="205.981" y="250.946" width="77.333" height="75.659" rx="24" fill="#FFFFFF" style="" transform="matrix(0.9999999999999999, 0, 0, 0.9999999999999999, -1.1368683772161603e-13, 0)"/>
    <circle cx="177.594" cy="288.38" r="32" fill="#FFFFFF" style="" transform="matrix(0.8055490255355834, 0, 0, 0.7881129980087279, 25.927822113036996, 10.65212631225586)"/>
    <rect x="143.21" y="267.106" width="51.555" height="50.439" rx="16" fill="#FFFFFF" style="" transform="matrix(0.9999999999999999, 0, 0, 0.9999999999999999, -1.1368683772161603e-13, 0)"/>
    <circle cx="337.594" cy="288.38" r="32" fill="#FFFFFF" style="" transform="matrix(0.8055490255355834, 0, 0, 0.7881129980087279, 49.72180938720692, 7.797217845916748)"/>
    <rect x="295.893" y="265.837" width="51.555" height="50.439" rx="16" fill="#FFFFFF" style="" transform="matrix(0.9999999999999999, 0, 0, 0.9999999999999999, -1.1368683772161603e-13, 0)"/>
    <g transform="matrix(1.754853010177612, 0, 0, 1.678796052932739, 95.5717315673827, 318.5710754394531)" style="fill: rgb(255, 255, 255);">
        <g>
            <g transform="translate(0, 0)">
                <path d="M0 13.20L9.60 48.20L14.30 48.20L23.90 13.20L19.80 13.20L11.95 42.30L4.05 13.20L0 13.20ZM27.50 41.25L27.50 38.75L41.85 38.00L41.85 31.10Q41.85 28.30 40.75 26.42Q39.65 24.55 37.68 23.62Q35.70 22.70 33.05 22.70Q30.40 22.70 28.30 23.65Q26.20 24.60 25.00 26.50Q23.80 28.40 23.80 31.25L23.80 41.50Q23.80 43.50 24.43 44.90Q25.05 46.30 26.18 47.17Q27.30 48.05 28.88 48.42Q30.45 48.80 32.30 48.80Q34.35 48.80 36.58 48.17Q38.80 47.55 40.60 46.45L39.20 43.40Q37.45 44.30 35.68 44.90Q33.90 45.50 32.20 45.50Q31.20 45.50 30.33 45.25Q29.45 45.00 28.83 44.47Q28.20 43.95 27.85 43.15Q27.50 42.35 27.50 41.25M38.10 31.35L38.10 34.75L27.50 35.25L27.50 31.70Q27.50 29.90 28.13 28.65Q28.75 27.40 29.98 26.72Q31.20 26.05 33 26.00Q34.60 26.00 35.75 26.70Q36.90 27.40 37.50 28.60Q38.10 29.80 38.10 31.35ZM60.80 27.20L61.70 24.30Q60.15 23.60 58.45 23.15Q56.75 22.70 55.05 22.65Q51.95 22.65 49.88 23.85Q47.80 25.05 46.75 27.22Q45.70 29.40 45.70 32.25L45.70 39.50Q45.70 42.70 46.88 44.72Q48.05 46.75 50.20 47.72Q52.35 48.70 55.20 48.75Q56.90 48.80 58.58 48.57Q60.25 48.35 61.80 47.95L61.10 44.80Q61.15 44.80 60.68 44.87Q60.20 44.95 59.40 45.10Q58.60 45.25 57.63 45.35Q56.65 45.45 55.65 45.45Q54.05 45.40 52.88 45.02Q51.70 44.65 50.90 43.90Q50.10 43.15 49.73 41.95Q49.35 40.75 49.35 39.10L49.40 32.30Q49.40 30.35 50.08 28.92Q50.75 27.50 52.10 26.72Q53.45 25.95 55.50 25.95Q56.85 26.00 58.25 26.32Q59.65 26.65 60.80 27.20ZM65.65 48.20L69.40 48.20L69.40 23.15L65.65 23.15L65.65 48.20M67.55 12.70Q66.70 12.70 66.05 13.30Q65.40 13.90 65.40 14.80Q65.40 15.65 66.05 16.27Q66.70 16.90 67.55 16.90Q68.45 16.90 69.08 16.27Q69.70 15.65 69.70 14.80Q69.70 13.90 69.08 13.30Q68.45 12.70 67.55 12.70ZM88.30 31.10L88.30 48.20L91.95 48.20L91.95 30.95Q91.95 29.20 91.55 27.90Q91.15 26.60 90.40 25.62Q89.65 24.65 88.60 24.00Q87.55 23.35 86.25 23.02Q84.95 22.70 83.45 22.70Q82.30 22.70 81.15 22.97Q80.00 23.25 79.00 23.70Q78.00 24.15 77.20 24.65L77.20 23.15L73.45 23.15L73.45 48.20L77.20 48.20L77.20 27.60Q78.15 27.05 79.05 26.70Q79.95 26.35 80.88 26.20Q81.80 26.05 82.75 26.05Q83.85 26.05 84.83 26.32Q85.80 26.60 86.60 27.20Q87.40 27.80 87.85 28.75Q88.30 29.70 88.30 31.10ZM121.10 48.20L110.65 13.20L106.30 13.20L95.95 48.20L100.05 48.20L103.35 36.95L113.60 36.95L116.95 48.20L121.10 48.20M104.30 33.20L108.40 18.45L112.65 33.20L104.30 33.20ZM136.55 13.20L125.05 13.20L125.05 48.20L128.80 48.20L128.80 36.75L136.55 36.75Q138.90 36.75 140.80 36.17Q142.70 35.60 144.05 34.25Q145.40 32.90 146.13 30.60Q146.85 28.30 146.85 24.85Q146.85 21.50 146.10 19.22Q145.35 16.95 143.95 15.65Q142.55 14.35 140.68 13.77Q138.80 13.20 136.55 13.20M128.80 33.20L128.80 16.80L136.05 16.80Q137.65 16.80 138.95 17.12Q140.25 17.45 141.18 18.27Q142.10 19.10 142.57 20.70Q143.05 22.30 143.05 24.85Q143.05 27.60 142.57 29.27Q142.10 30.95 141.15 31.77Q140.20 32.60 138.93 32.90Q137.65 33.20 136.05 33.20L128.80 33.20ZM162.35 13.20L150.85 13.20L150.85 48.20L154.60 48.20L154.60 36.75L162.35 36.75Q164.70 36.75 166.60 36.17Q168.50 35.60 169.85 34.25Q171.20 32.90 171.92 30.60Q172.65 28.30 172.65 24.85Q172.65 21.50 171.90 19.22Q171.15 16.95 169.75 15.65Q168.35 14.35 166.47 13.77Q164.60 13.20 162.35 13.20M154.60 33.20L154.60 16.80L161.85 16.80Q163.45 16.80 164.75 17.12Q166.05 17.45 166.97 18.27Q167.90 19.10 168.38 20.70Q168.85 22.30 168.85 24.85Q168.85 27.60 168.38 29.27Q167.90 30.95 166.95 31.77Q166.00 32.60 164.72 32.90Q163.45 33.20 161.85 33.20L154.60 33.20Z"/>
            </g>
        </g>
    </g>
</svg>